<svg width="53" height="67" viewBox="0 0 53 67" fill="none" xmlns="http://www.w3.org/2000/svg">
<path d="M48.928 0.903996L52.672 67H44.656L42.592 32.488C42.496 30.152 42.4 27.784 42.304 25.384C42.208 22.984 42.144 20.68 42.112 18.472C42.08 16.264 42.064 14.296 42.064 12.568C42.064 10.84 42.064 9.496 42.064 8.536L30.928 55.144H22.576L10.624 8.536C10.656 9.464 10.688 10.84 10.72 12.664C10.752 14.456 10.768 16.488 10.768 18.76C10.8 21.032 10.784 23.368 10.72 25.768C10.688 28.136 10.624 30.344 10.528 32.392L8.752 67H0.928L4.672 0.903996H16.288L26.992 46.168L37.216 0.903996H48.928Z" fill="#00B2A9"/>
</svg>
